<svg xmlns="http://www.w3.org/2000/svg" version="1.1" xmlns:xlink="http://www.w3.org/1999/xlink" xmlns:svgjs="http://svgjs.com/svgjs" width="1440" height="560" preserveAspectRatio="none" viewBox="0 0 1440 560"><g mask="url(&quot;#SvgjsMask1034&quot;)" fill="none"><rect width="1440" height="560" x="0" y="0" fill="rgba(255, 255, 255, 1)"></rect><path d="M 0,198 C 72,164.8 216,18 360,32 C 504,46 576,274 720,268 C 864,262 936,26.4 1080,2 C 1224,-22.4 1368,117.2 1440,146L1440 560L0 560z" fill="rgba(247, 247, 252, 1)"></path><path d="M 0,536 C 96,494 288,348 480,326 C 672,304 768,410.6 960,426 C 1152,441.4 1344,407.6 1440,403L1440 560L0 560z" fill="rgba(134, 134, 246, 1)"></path></g><defs><mask id="SvgjsMask1034"><rect width="1440" height="560" fill="#ffffff"></rect></mask></defs></svg>