<svg fill="none" height="24" viewBox="0 0 24 24" width="24" xmlns="http://www.w3.org/2000/svg"><path clip-rule="evenodd" d="M1.5 6C1.5 5.72386 1.72386 5.5 2 5.5H22C22.2761 5.5 22.5 5.72386 22.5 6V13C22.5 13.2522 22.3122 13.4649 22.062 13.4961L14.062 14.4961L13.938 13.5039L21.5 12.5586V6.5H2.5V12.5586L10.062 13.5039L9.93798 14.4961L1.93798 13.4961C1.68777 13.4649 1.5 13.2522 1.5 13V6Z" fill="black" fill-rule="evenodd"/><path clip-rule="evenodd" d="M9.5 11.5C9.5 11.2239 9.72386 11 10 11H14C14.2761 11 14.5 11.2239 14.5 11.5V16.5C14.5 16.7761 14.2761 17 14 17H10C9.72386 17 9.5 16.7761 9.5 16.5V11.5ZM10.5 12V16H13.5V12H10.5Z" fill="black" fill-rule="evenodd"/><path clip-rule="evenodd" d="M8.5 4.5C8.5 3.39543 9.39543 2.5 10.5 2.5H13.5C14.6046 2.5 15.5 3.39543 15.5 4.5V6H14.5V4.5C14.5 3.94772 14.0523 3.5 13.5 3.5H10.5C9.94772 3.5 9.5 3.94772 9.5 4.5V6H8.5V4.5Z" fill="black" fill-rule="evenodd"/><path clip-rule="evenodd" d="M2.5 21V13.5H3.5V20.5H20.5V13.5H21.5V21C21.5 21.2761 21.2761 21.5 21 21.5H3C2.72386 21.5 2.5 21.2761 2.5 21Z" fill="black" fill-rule="evenodd"/></svg>